<?xml version="1.0" standalone="no"?>
<!DOCTYPE svg PUBLIC "-//W3C//DTD SVG 20010904//EN"
 "http://www.w3.org/TR/2001/REC-SVG-20010904/DTD/svg10.dtd">
<svg version="1.0" xmlns="http://www.w3.org/2000/svg"
 width="261.000000pt" height="187.000000pt" viewBox="0 0 261.000000 187.000000"
 preserveAspectRatio="xMidYMid meet">
<metadata>
Created by potrace 1.16, written by Peter Selinger 2001-2019
</metadata>
<g transform="translate(0.000000,187.000000) scale(0.100000,-0.100000)"
fill="#000000" stroke="none">
<path style="fill:#6a8ad9;" d="M1071 1335 c-161 -278 -296 -505 -299 -505 -4 0 -41 34 -82 75 l-76
76 -224 -423 c-123 -233 -239 -451 -258 -485 l-34 -63 59 0 58 1 209 397 c115
218 211 399 213 401 2 3 38 -30 81 -72 l77 -77 114 198 c63 108 115 199 117
201 2 2 30 -18 61 -45 32 -27 65 -55 74 -61 13 -11 29 -1 103 62 48 41 91 75
94 75 4 0 47 -34 95 -76 l88 -76 60 52 c33 29 64 49 68 44 5 -5 82 -151 171
-324 89 -173 183 -352 207 -398 l45 -83 53 76 53 77 29 -50 c15 -27 62 -110
103 -185 l75 -137 58 0 c32 0 56 3 54 8 -3 4 -71 126 -152 272 -81 146 -150
269 -154 273 -4 4 -29 -24 -55 -63 -26 -39 -51 -68 -56 -65 -4 3 -97 177 -206
388 -228 441 -524 1011 -528 1015 -2 1 -134 -225 -295 -503z m420 47 l126
-247 -36 -32 -37 -32 -93 80 -93 79 -92 -79 -92 -79 -47 41 -47 42 138 237
c75 131 139 237 142 237 3 1 62 -111 131 -247z"/>
</g>
</svg>
