<?xml version="1.0" standalone="no"?>
<!DOCTYPE svg PUBLIC "-//W3C//DTD SVG 20010904//EN"
 "http://www.w3.org/TR/2001/REC-SVG-20010904/DTD/svg10.dtd">
<svg version="1.0" xmlns="http://www.w3.org/2000/svg"
 width="429.000000pt" height="187.000000pt" viewBox="0 0 429.000000 187.000000"
 preserveAspectRatio="xMidYMid meet">
<metadata>
Created by potrace 1.16, written by Peter Selinger 2001-2019
</metadata>
<g transform="translate(0.000000,187.000000) scale(0.100000,-0.100000)"
fill="#000000" stroke="none">
<path d="M11 1342 c-18 -34 3 -46 83 -50 l76 -4 0 -399 0 -399 -51 0 c-59 0
-89 -13 -89 -40 0 -28 24 -31 200 -28 144 3 155 4 158 22 6 29 -25 46 -85 46
l-53 0 0 387 c0 212 3 383 6 380 4 -4 104 -192 223 -418 119 -227 224 -417
234 -423 12 -8 22 -8 35 0 16 10 17 44 20 443 l2 431 33 0 c68 0 102 25 76 56
-9 11 -46 14 -159 14 -82 0 -155 -3 -164 -6 -22 -8 -20 -41 3 -54 11 -5 46
-10 78 -10 l58 0 1 -350 c0 -193 -2 -350 -5 -350 -3 0 -87 160 -185 355 -99
196 -188 369 -198 385 l-18 30 -135 0 c-119 0 -135 -2 -144 -18z"/>
<path d="M3855 1353 c-97 -8 -106 -12 -103 -41 3 -27 4 -27 71 -23 l67 3 0
-145 0 -145 -68 35 c-61 31 -77 35 -150 35 -69 0 -90 -4 -137 -26 -108 -53
-166 -158 -166 -301 -1 -167 72 -280 207 -321 95 -28 204 -11 282 46 42 30 42
30 42 7 0 -50 18 -58 108 -51 97 8 137 29 112 59 -12 15 -26 17 -82 12 l-68
-6 -2 432 -3 432 -35 1 c-19 1 -53 -1 -75 -3z m-65 -368 c19 -9 50 -28 68 -42
l32 -24 0 -169 0 -168 -46 -41 c-56 -49 -106 -64 -195 -59 -104 6 -165 61
-196 181 -35 133 14 266 117 320 48 25 63 28 120 24 36 -2 81 -12 100 -22z"/>
<path d="M1462 1070 c-118 -17 -212 -91 -253 -199 -17 -46 -20 -72 -17 -146 5
-107 32 -169 98 -229 71 -64 120 -81 235 -81 87 0 107 3 156 26 101 47 158
123 179 236 19 110 -9 218 -76 293 -73 81 -194 118 -322 100z m184 -88 c168
-86 180 -367 19 -467 -39 -24 -61 -30 -121 -33 -88 -5 -134 9 -187 57 -57 51
-80 109 -81 201 0 128 56 217 161 256 52 20 157 13 209 -14z"/>
<path d="M2754 1060 c-66 -13 -110 -36 -158 -81 l-46 -42 0 45 c0 24 -6 52
-13 62 -13 18 -17 18 -103 0 -83 -18 -89 -21 -89 -44 0 -24 1 -25 68 -22 l67
2 0 -245 0 -245 -77 0 c-89 0 -106 -7 -101 -41 l3 -24 270 0 270 0 3 26 c4 35
-12 39 -170 39 l-128 0 0 179 0 179 33 44 c44 57 128 99 213 106 l63 5 3 -64
c3 -64 3 -64 33 -64 l30 0 3 85 c2 71 0 87 -14 97 -20 14 -96 15 -160 3z"/>
</g>
</svg>
