<?xml version="1.0" standalone="no"?>
<!DOCTYPE svg PUBLIC "-//W3C//DTD SVG 20010904//EN"
 "http://www.w3.org/TR/2001/REC-SVG-20010904/DTD/svg10.dtd">
<svg version="1.0" xmlns="http://www.w3.org/2000/svg"
 width="534.000000pt" height="187.000000pt" viewBox="0 0 534.000000 187.000000"
 preserveAspectRatio="xMidYMid meet">
<metadata>
Created by potrace 1.16, written by Peter Selinger 2001-2019
</metadata>
<g transform="translate(0.000000,187.000000) scale(0.100000,-0.100000)"
fill="#000000" stroke="none">
<path d="M333 1426 c-60 -20 -107 -51 -152 -103 -55 -62 -82 -138 -88 -248
-11 -193 64 -348 202 -415 41 -20 66 -24 140 -24 103 -1 171 22 221 76 l29 30
5 -48 c6 -57 32 -81 56 -50 11 15 14 57 14 183 l0 163 30 0 c38 0 52 27 25 46
-13 9 -48 14 -104 14 -110 0 -133 -6 -129 -34 3 -18 11 -21 56 -24 l52 -3 0
-64 c0 -79 -9 -102 -57 -156 -52 -58 -102 -79 -188 -79 -158 0 -261 104 -284
286 -30 242 80 404 273 404 118 -1 197 -53 235 -154 15 -42 23 -51 42 -51 24
0 24 2 27 116 2 97 0 118 -14 129 -24 21 -48 0 -52 -44 l-3 -37 -35 31 c-19
16 -51 37 -72 46 -51 22 -176 27 -229 10z"/>
<path d="M5150 1182 l-75 -48 -47 24 c-65 34 -171 34 -236 0 -65 -33 -92 -77
-92 -145 0 -66 10 -85 61 -123 l40 -29 -31 -16 c-17 -9 -38 -31 -47 -50 -14
-28 -14 -38 -3 -65 7 -17 22 -35 32 -41 20 -11 19 -11 -5 -37 -36 -39 -47 -65
-47 -112 0 -99 58 -135 215 -135 91 0 105 3 160 30 76 38 100 71 99 135 -1
102 -50 131 -229 138 -131 4 -165 16 -165 56 0 37 41 57 141 66 145 14 199 53
206 152 3 39 -1 63 -15 89 l-19 37 54 26 c29 14 66 26 81 26 63 0 87 62 26 68
-22 2 -49 -10 -104 -46z m-161 -68 c49 -20 73 -54 73 -108 2 -83 -43 -116
-154 -116 -105 0 -156 47 -145 133 3 21 14 48 24 59 42 47 130 61 202 32z m53
-464 c46 -13 68 -43 68 -91 0 -42 -21 -64 -77 -85 -46 -16 -193 -18 -227 -3
-51 23 -58 100 -15 160 20 29 22 29 117 29 53 0 114 -5 134 -10z"/>
<path d="M1228 1174 c-63 -19 -118 -72 -118 -112 0 -45 9 -62 35 -62 23 0 41
30 47 80 4 32 50 49 138 49 96 1 129 -30 144 -130 l7 -46 -118 -5 c-182 -8
-253 -48 -260 -150 -5 -61 16 -110 59 -141 58 -43 198 -29 280 27 l36 24 12
-28 c22 -52 94 -65 151 -27 35 24 48 52 31 69 -7 7 -20 3 -40 -12 -18 -14 -40
-20 -58 -18 l-29 3 -6 180 c-7 225 -18 257 -104 296 -48 22 -140 24 -207 3z
m250 -324 c5 -80 -2 -93 -60 -125 -73 -40 -180 -47 -220 -15 -24 18 -28 29
-28 69 0 50 10 66 58 90 23 12 202 41 232 37 11 -1 16 -16 18 -56z"/>
<path d="M2095 1172 c-17 -10 -39 -36 -50 -56 l-20 -37 -5 48 -5 48 -41 -2
c-70 -3 -124 -21 -124 -42 0 -20 21 -33 43 -27 6 3 24 7 40 10 l27 6 0 -210 0
-210 -33 0 c-42 0 -73 -21 -64 -44 6 -14 22 -16 124 -14 106 3 118 5 121 22 5
23 -14 36 -50 36 l-28 0 0 160 c0 141 2 166 20 200 25 48 55 70 97 70 61 0 67
-24 73 -270 l5 -215 76 -3 c66 -2 78 0 83 15 10 24 -19 43 -66 43 l-38 0 0
155 c0 109 4 165 14 188 20 48 70 87 112 87 56 0 64 -32 64 -268 0 -141 3
-201 12 -210 17 -17 133 -16 147 2 17 20 -13 46 -54 46 l-33 0 -4 188 c-3 169
-6 191 -26 229 -49 94 -165 94 -222 1 l-18 -30 -15 28 c-35 67 -106 92 -162
56z"/>
<path d="M3056 1169 c-71 -10 -134 -23 -139 -28 -5 -5 -7 -17 -3 -27 6 -15 15
-16 84 -8 42 4 97 8 121 8 l45 1 0 -205 0 -205 -114 -2 c-146 -4 -162 -7 -158
-36 l3 -22 288 -3 c260 -2 288 -1 294 14 12 33 -24 44 -139 44 l-108 0 -2 243
c-3 234 -4 242 -23 244 -11 1 -78 -7 -149 -18z"/>
<path d="M4009 1175 c-26 -8 -64 -32 -87 -54 l-41 -40 -3 47 -3 47 -41 -2
c-23 -1 -60 -7 -83 -13 -35 -9 -42 -15 -39 -33 3 -23 17 -26 76 -14 l32 7 0
-210 0 -210 -33 0 c-41 0 -73 -21 -64 -44 9 -24 238 -24 258 0 11 14 10 18 -6
30 -10 8 -36 14 -57 14 l-38 0 0 143 c0 131 2 148 23 188 32 60 106 99 188 99
51 0 63 -4 91 -29 l33 -29 3 -186 3 -186 -48 0 c-61 0 -94 -20 -74 -44 12 -14
34 -16 145 -14 119 3 131 5 134 22 5 24 -14 36 -60 36 l-37 0 -3 194 c-3 212
-6 221 -70 269 -34 26 -137 32 -199 12z"/>
</g>
</svg>
